# xmcd CD database file
#
# Track frame offsets:
#       150
#       13623
#       33392
#       55054
#       71430
#       89206
#       103689
#       116897
#       130028
#       142019
#       155724
#       173392
#
# Disc length: 2516 seconds
#
# Revision: 0
# Processed by: cddbd v1.4PL0 Copyright (c) Steve Scherf et al.
# Submitted via: jack 2.99.8
#
DISCID=a409d20c
DTITLE=Bill Pekar - The First Five Years
DYEAR=1900
DGENRE=
TTITLE0=First Five Years
TTITLE1=The Koozie Song
TTITLE2=Colors Are All The Same
TTITLE3=The Way It Used To Be
TTITLE4=The Drunk Driver Song
TTITLE5=Last Of The Old Time Cowboys
TTITLE6=Be My Blanket
TTITLE7=One Way Ticket
TTITLE8=This House
TTITLE9=Hollow Spot
TTITLE10=Jack Daniels and Michelle
TTITLE11=Dirt Poor
EXTD=
EXTT0=
EXTT1=
EXTT2=
EXTT3=
EXTT4=
EXTT5=
EXTT6=
EXTT7=
EXTT8=
EXTT9=
EXTT10=
EXTT11=
PLAYORDER=
